<svg xmlns="http://www.w3.org/2000/svg" width="1366" height="266.001" viewBox="0 0 1366 266.001">
  <path id="Subtraction_4" data-name="Subtraction 4" d="M991,266h0l-345.392,0a82.461,82.461,0,0,0-4.112-25.391A69.089,69.089,0,0,0,630.623,219.9a51.912,51.912,0,0,0-16.031-13.953,40.092,40.092,0,0,0-39.184,0A51.913,51.913,0,0,0,559.376,219.9,69.09,69.09,0,0,0,548.5,240.607,82.477,82.477,0,0,0,544.393,266H294.224a103.8,103.8,0,0,0-6.682-19.19,69.337,69.337,0,0,0-9.329-14.984c-7.22-8.652-15.631-13.225-24.324-13.225s-17.1,4.573-24.324,13.225a69.343,69.343,0,0,0-9.329,14.984A103.8,103.8,0,0,0,213.556,266H81.458a76.288,76.288,0,0,0-16.65-25.938,110.487,110.487,0,0,0-27.459-20.6A148.935,148.935,0,0,0,1.513,205.867a177.19,177.19,0,0,0-41.781-4.9,177.19,177.19,0,0,0-41.781,4.9,148.942,148.942,0,0,0-35.836,13.591,110.487,110.487,0,0,0-27.459,20.6A76.283,76.283,0,0,0-161.994,266H-309.653a83.289,83.289,0,0,0,3.263-23.3,82.677,82.677,0,0,0-3.977-25.617,69.323,69.323,0,0,0-10.846-20.919,52.044,52.044,0,0,0-16.087-14.1,40.5,40.5,0,0,0-19.7-5.172,40.277,40.277,0,0,0-18,4.284V0h163.9a78.763,78.763,0,0,0-4.079,14.278A85.086,85.086,0,0,0-216.61,29.9a82.675,82.675,0,0,0,3.978,25.617,69.321,69.321,0,0,0,10.846,20.919,52.044,52.044,0,0,0,16.087,14.1A40.5,40.5,0,0,0-166,95.713a40.5,40.5,0,0,0,19.7-5.172,52.042,52.042,0,0,0,16.087-14.1,69.318,69.318,0,0,0,10.846-20.919A82.676,82.676,0,0,0-115.39,29.9a85.085,85.085,0,0,0-1.435-15.624A78.787,78.787,0,0,0-120.9,0H53.156c3.633,13,9.16,23.969,15.983,31.726C76.151,39.7,84.254,43.912,92.573,43.912S109,39.7,116.007,31.725C122.83,23.969,128.357,13,131.99,0H363.016a106.931,106.931,0,0,0,12.769,17.808,85.112,85.112,0,0,0,15.278,13.57,68.359,68.359,0,0,0,17.3,8.644,60.332,60.332,0,0,0,18.833,3.034,60.331,60.331,0,0,0,18.832-3.034,68.365,68.365,0,0,0,17.3-8.644A85.111,85.111,0,0,0,478.6,17.808,106.936,106.936,0,0,0,491.374,0H645.356a131.707,131.707,0,0,0,.621,36.3,123.142,123.142,0,0,0,4.551,18.97,113.13,113.13,0,0,0,7.2,17.166,100.776,100.776,0,0,0,9.538,14.957,87.329,87.329,0,0,0,11.56,12.34,74.833,74.833,0,0,0,13.268,9.317,62.168,62.168,0,0,0,60.808,0,74.808,74.808,0,0,0,13.268-9.317,87.349,87.349,0,0,0,11.56-12.34,100.769,100.769,0,0,0,9.538-14.957,113.119,113.119,0,0,0,7.2-17.166,123.181,123.181,0,0,0,4.552-18.97A131.716,131.716,0,0,0,799.643,0H991V266ZM879,133a26.818,26.818,0,0,0-13.083,3.447,34.6,34.6,0,0,0-10.683,9.4,46.27,46.27,0,0,0-7.2,13.944,56.509,56.509,0,0,0,0,34.15,46.267,46.267,0,0,0,7.2,13.944,34.6,34.6,0,0,0,10.683,9.4,26.546,26.546,0,0,0,26.165,0,34.6,34.6,0,0,0,10.683-9.4,46.268,46.268,0,0,0,7.2-13.944,56.516,56.516,0,0,0,0-34.15,46.265,46.265,0,0,0-7.2-13.944,34.6,34.6,0,0,0-10.683-9.4A26.816,26.816,0,0,0,879,133Z" transform="translate(375 0.001)" fill="#faea92"/>
</svg>
