<svg xmlns="http://www.w3.org/2000/svg" width="191.436" height="57.619" viewBox="0 0 191.436 57.619">
  <g id="Group_2" data-name="Group 2" transform="translate(-577.393 -358.542)">
    <g id="Group_4" data-name="Group 4">
      <g id="Stilton-ify-2" style="isolation: isolate">
        <g id="Group_3" data-name="Group 3" style="isolation: isolate">
          <g id="Path_3" data-name="Path 3" fill="#b50714" stroke-miterlimit="10">
            <path d="M 589.8189697265625 393.2749938964844 C 587.3750610351562 393.2749938964844 585.03759765625 392.6105651855469 583.059326171875 391.353515625 C 580.9718627929688 390.027099609375 579.4588012695312 388.1389465332031 578.6837158203125 385.8932495117188 C 578.4912719726562 385.3428955078125 578.3930053710938 384.8052062988281 578.3930053710938 384.2990112304688 L 578.3930053710938 384.290283203125 L 578.3931274414062 384.2815856933594 C 578.4080810546875 383.4248046875 578.682373046875 382.6781311035156 579.186279296875 382.122314453125 C 579.7380981445312 381.5137023925781 580.508056640625 381.1919860839844 581.4130249023438 381.1919860839844 C 582.1817626953125 381.1919860839844 582.8639526367188 381.4190979003906 583.4404907226562 381.8670654296875 C 583.9708862304688 382.2791137695312 584.3949584960938 382.8589477539062 584.7369995117188 383.6397705078125 C 585.7884521484375 386.0086059570312 587.4700317382812 387.2120056152344 589.7329711914062 387.2120056152344 C 590.894287109375 387.2120056152344 591.8595581054688 386.9248657226562 592.5243530273438 386.3816528320312 C 593.1618041992188 385.8608093261719 593.4849853515625 385.1311645507812 593.4849853515625 384.2130126953125 C 593.4849853515625 382.3856201171875 591.8370361328125 381.4495544433594 589.148193359375 380.0736389160156 L 588.9339599609375 379.9639282226562 C 587.2561645507812 379.1040649414062 585.3447265625 378.057861328125 583.8944702148438 376.5194702148438 C 582.21728515625 374.7403259277344 581.4019775390625 372.6012573242188 581.4019775390625 369.9800109863281 C 581.4019775390625 368.5131530761719 581.7137451171875 367.1382141113281 582.3287353515625 365.8933715820312 C 582.9002075195312 364.7364807128906 583.718505859375 363.7187805175781 584.7609252929688 362.8685607910156 C 586.682861328125 361.3010559082031 589.3024291992188 360.4020080566406 591.947998046875 360.4020080566406 C 593.8010864257812 360.4020080566406 595.6136474609375 360.7106018066406 597.189697265625 361.2944030761719 C 598.713134765625 361.8586730957031 599.9862670898438 362.6640319824219 600.8719482421875 363.6235961914062 C 601.5059204101562 364.29931640625 601.8682861328125 365.1143493652344 601.9198608398438 365.9808349609375 C 601.9681396484375 366.7915649414062 601.7344970703125 367.5850219726562 601.261962890625 368.2149963378906 L 601.2601318359375 368.2174682617188 L 601.2582397460938 368.2199096679688 C 600.693359375 368.9635314941406 599.7685546875 369.3900146484375 598.7210083007812 369.3900146484375 C 597.9022827148438 369.3900146484375 597.0663452148438 369.115234375 596.4276123046875 368.6361083984375 C 595.8635864257812 368.2130432128906 595.4789428710938 367.6611328125 595.306640625 367.0411376953125 C 594.2330932617188 366.5906677246094 593.2576293945312 366.3789978027344 592.27099609375 366.3789978027344 C 591.0584716796875 366.3789978027344 590.038330078125 366.7066650390625 589.3209228515625 367.3265380859375 C 588.6563110351562 367.9007873535156 588.3049926757812 368.6918029785156 588.3049926757812 369.614013671875 C 588.3049926757812 370.6859436035156 588.6962280273438 371.5071105957031 589.573486328125 372.2765808105469 C 590.4561767578125 373.0508117675781 591.7307739257812 373.6828918457031 593.0802612304688 374.3520812988281 C 594.8659057617188 375.2385864257812 596.5810546875 376.1484680175781 597.94140625 377.52880859375 C 599.5870361328125 379.1986999511719 600.3870239257812 381.2376098632812 600.3870239257812 383.7619934082031 C 600.3870239257812 386.4923095703125 599.2936401367188 388.9499816894531 597.308349609375 390.6822509765625 C 595.3921508789062 392.3541870117188 592.7323608398438 393.2749938964844 589.8189697265625 393.2749938964844 Z" stroke="none"/>
            <path d="M 589.8189697265625 392.2749938964844 C 595.280029296875 392.2749938964844 599.3870239257812 388.8559875488281 599.3870239257812 383.7619934082031 C 599.3870239257812 378.7520141601562 595.8829956054688 376.8599853515625 592.635986328125 375.2479858398438 C 589.8189697265625 373.8510131835938 587.3049926757812 372.60400390625 587.3049926757812 369.614013671875 C 587.3049926757812 367.1430053710938 589.281982421875 365.3789978027344 592.27099609375 365.3789978027344 C 593.7750244140625 365.3789978027344 595.0650024414062 365.8099975585938 596.2050170898438 366.3469848632812 C 596.2479858398438 367.593994140625 597.5170288085938 368.3900146484375 598.7210083007812 368.3900146484375 C 599.3870239257812 368.3900146484375 600.0540161132812 368.1520080566406 600.4619750976562 367.614990234375 C 601.1069946289062 366.7550048828125 601.1500244140625 365.3789978027344 600.1400146484375 364.3049926757812 C 598.6129760742188 362.6480102539062 595.60400390625 361.4020080566406 591.947998046875 361.4020080566406 C 587.1959838867188 361.4020080566406 582.4019775390625 364.5199890136719 582.4019775390625 369.9800109863281 C 582.4019775390625 375.2049865722656 585.9929809570312 377.3330078125 589.3900146484375 379.0740051269531 C 592.0339965820312 380.4289855957031 594.4849853515625 381.6109924316406 594.4849853515625 384.2130126953125 C 594.4849853515625 386.72900390625 592.5280151367188 388.2120056152344 589.7329711914062 388.2120056152344 C 587.218017578125 388.2120056152344 585.0900268554688 386.8999938964844 583.8209838867188 384.0409851074219 C 583.2839965820312 382.8150024414062 582.510009765625 382.1919860839844 581.4130249023438 382.1919860839844 C 580.1229858398438 382.1919860839844 579.4140014648438 383.0950012207031 579.3930053710938 384.2990112304688 C 579.3930053710938 384.7070007324219 579.47900390625 385.1380004882812 579.6290283203125 385.5669860839844 C 581.0910034179688 389.8030090332031 585.3480224609375 392.2749938964844 589.8189697265625 392.2749938964844 M 589.8189697265625 394.2749938964844 C 587.1847534179688 394.2749938964844 584.661865234375 393.5566101074219 582.5230102539062 392.1975402832031 C 580.2437133789062 390.7492065429688 578.5896606445312 388.6831970214844 577.7396240234375 386.2229614257812 C 577.5096435546875 385.5638427734375 577.3930053710938 384.9165649414062 577.3930053710938 384.2990112304688 L 577.3930053710938 384.2815856933594 L 577.393310546875 384.2641296386719 C 577.4125366210938 383.1614990234375 577.7763671875 382.1886291503906 578.4454345703125 381.4506530761719 C 579.1813354492188 380.6389770507812 580.2352294921875 380.1919860839844 581.4130249023438 380.1919860839844 C 582.4092407226562 380.1919860839844 583.2977905273438 380.4898681640625 584.0540161132812 381.0773620605469 C 584.708740234375 381.5859985351562 585.2457885742188 382.3110656738281 585.6503295898438 383.2326049804688 C 586.5411376953125 385.2374877929688 587.8765869140625 386.2120056152344 589.7329711914062 386.2120056152344 C 590.6477661132812 386.2120056152344 591.4143676757812 385.9972534179688 591.8916625976562 385.6072692871094 C 592.2908935546875 385.2810363769531 592.4849853515625 384.8249816894531 592.4849853515625 384.2130126953125 C 592.4849853515625 383.0282287597656 591.3294067382812 382.3131408691406 588.692626953125 380.9638366699219 L 588.4778442382812 380.8538818359375 C 586.7258911132812 379.9559936523438 584.7261352539062 378.8595275878906 583.1668090820312 377.2054138183594 C 581.3322143554688 375.25927734375 580.4019775390625 372.8283081054688 580.4019775390625 369.9800109863281 C 580.4019775390625 366.8546142578125 581.7255249023438 364.0538635253906 584.12890625 362.0936279296875 C 586.2261352539062 360.383056640625 589.0761108398438 359.4020080566406 591.947998046875 359.4020080566406 C 593.9183349609375 359.4020080566406 595.8510131835938 359.7321166992188 597.5370483398438 360.3566589355469 C 599.2056884765625 360.9747314453125 600.6115112304688 361.8684692382812 601.6033935546875 362.9417114257812 C 602.39794921875 363.78955078125 602.8525390625 364.8197021484375 602.9180908203125 365.9214172363281 C 602.9804077148438 366.9682006835938 602.6763305664062 367.995849609375 602.0619506835938 368.8150329589844 L 602.0582885742188 368.8199462890625 L 602.0545654296875 368.8248291015625 C 601.2988891601562 369.8195190429688 600.0838623046875 370.3900146484375 598.7210083007812 370.3900146484375 C 597.67529296875 370.3900146484375 596.647705078125 370.0512390136719 595.8275756835938 369.4360656738281 C 595.23291015625 368.9900512695312 594.7885131835938 368.4322204589844 594.516357421875 367.8034057617188 C 593.7261352539062 367.5124206542969 593.0095825195312 367.3789978027344 592.27099609375 367.3789978027344 C 590.837158203125 367.3789978027344 589.3049926757812 367.9661560058594 589.3049926757812 369.614013671875 C 589.3049926757812 371.2054748535156 590.5261840820312 371.9692993164062 593.5245361328125 373.4562072753906 C 595.3896484375 374.3821411132812 597.1847534179688 375.3363952636719 598.6536254882812 376.826904296875 C 600.4674072265625 378.6673278808594 601.3870239257812 381.0006408691406 601.3870239257812 383.7619934082031 C 601.3870239257812 389.8536376953125 596.52197265625 394.2749938964844 589.8189697265625 394.2749938964844 Z" stroke="none" fill="#fff"/>
          </g>
          <g id="Path_4" data-name="Path 4" fill="#b50714" stroke-miterlimit="10">
            <path d="M 611.3839721679688 392.8890075683594 C 609.2271118164062 392.8890075683594 607.47119140625 392.3135986328125 606.1649169921875 391.1788024902344 C 604.7312622070312 389.9333190917969 603.916259765625 388.0767517089844 603.7425537109375 385.6607055664062 C 603.6296997070312 384.113525390625 603.6406860351562 381.428955078125 604.2695922851562 377.2144165039062 C 604.2349853515625 377.2147827148438 604.2009887695312 377.2149658203125 604.16748046875 377.2149963378906 C 604.1443481445312 377.2153015136719 604.1211547851562 377.2154846191406 604.09814453125 377.2154846191406 C 603.1796264648438 377.2154846191406 602.3736572265625 376.9640502929688 601.767333984375 376.4884033203125 C 601.05712890625 375.9312438964844 600.666015625 375.0858764648438 600.666015625 374.1080017089844 C 600.666015625 372.4604797363281 601.874267578125 371.2874450683594 603.8980712890625 370.9700622558594 C 604.227783203125 370.9183654785156 604.7918090820312 370.8549499511719 605.496826171875 370.7896118164062 C 605.7920532226562 369.503662109375 606.0609741210938 368.4345092773438 606.314697265625 367.5369873046875 C 606.5686645507812 366.6499328613281 606.9534912109375 365.94873046875 607.4593505859375 365.4495849609375 C 608.0777587890625 364.8393859863281 608.85546875 364.5299987792969 609.77099609375 364.5299987792969 C 610.7418212890625 364.5299987792969 611.5781860351562 364.90673828125 612.1259155273438 365.5908508300781 C 612.807861328125 366.4425659179688 612.980712890625 367.6456604003906 612.6397705078125 369.1667175292969 C 612.56103515625 369.5140075683594 612.4849853515625 369.8600158691406 612.4119262695312 370.2030639648438 C 613.7964477539062 370.1109924316406 615.1735229492188 370.0339965820312 615.7919921875 370.0339965820312 C 616.7742309570312 370.0339965820312 617.6124877929688 370.3016357421875 618.216064453125 370.8080139160156 C 618.8363647460938 371.3283996582031 619.177978515625 372.07275390625 619.177978515625 372.9039916992188 C 619.177978515625 373.4553833007812 618.9965209960938 375.2962646484375 616.66162109375 375.8344421386719 C 615.8773803710938 376.0125122070312 614.1409301757812 376.2526245117188 611.2221069335938 376.5860900878906 C 610.657470703125 380.2588500976562 610.4539184570312 383.0607299804688 610.6171264648438 384.921630859375 C 610.7017211914062 385.8931274414062 610.8861694335938 386.3036499023438 611.0260620117188 386.4771118164062 C 611.089111328125 386.5552978515625 611.2202758789062 386.7179870605469 611.7930297851562 386.7179870605469 C 612.273193359375 386.7179870605469 613.2611694335938 386.418212890625 614.1328125 386.1537170410156 C 614.365478515625 386.0831298828125 614.6060180664062 386.0101318359375 614.8433837890625 385.9404602050781 C 615.1520385742188 385.8501281738281 615.4517822265625 385.8044128417969 615.7349853515625 385.8044128417969 C 617.0656127929688 385.8044128417969 617.9949951171875 386.8030700683594 617.9949951171875 388.2330017089844 C 617.9949951171875 389.0687255859375 617.7250366210938 389.8440246582031 617.21435546875 390.47509765625 L 617.20703125 390.484130859375 L 617.199462890625 390.4930114746094 C 615.9074096679688 392.0157165527344 613.7877197265625 392.8890075683594 611.3839721679688 392.8890075683594 Z" stroke="none"/>
            <path d="M 611.3839721679688 391.8890075683594 C 613.5560302734375 391.8890075683594 615.3610229492188 391.114013671875 616.43701171875 389.8460083007812 C 616.802001953125 389.3949890136719 616.9949951171875 388.8349914550781 616.9949951171875 388.2330017089844 C 616.9949951171875 387.4391479492188 616.5751953125 386.8044128417969 615.7349853515625 386.8044128417969 C 615.5516967773438 386.8044128417969 615.3483276367188 386.8346252441406 615.125 386.8999938964844 C 613.8779907226562 387.2659912109375 612.5659790039062 387.7179870605469 611.7930297851562 387.7179870605469 C 610.39599609375 387.7179870605469 609.7930297851562 386.9859924316406 609.6209716796875 385.0090026855469 C 609.406005859375 382.5580139160156 609.8140258789062 379.010009765625 610.35302734375 375.6780090332031 C 613.0399780273438 375.3770141601562 615.489990234375 375.0750122070312 616.43701171875 374.8599853515625 C 617.833984375 374.5379943847656 618.177978515625 373.6130065917969 618.177978515625 372.9039916992188 C 618.177978515625 371.8510131835938 617.3610229492188 371.0339965820312 615.7919921875 371.0339965820312 C 615.10400390625 371.0339965820312 613.2329711914062 371.1419982910156 611.1690063476562 371.2919921875 C 611.3410034179688 370.4100036621094 611.5130004882812 369.614013671875 611.6640014648438 368.947998046875 C 612.2230224609375 366.4540100097656 611.06201171875 365.5299987792969 609.77099609375 365.5299987792969 C 608.4169921875 365.5299987792969 607.6649780273438 366.4540100097656 607.2769775390625 367.8089904785156 C 606.9550170898438 368.947998046875 606.6329956054688 370.281005859375 606.3109741210938 371.7219848632812 C 605.2780151367188 371.8080139160156 604.4609985351562 371.8940124511719 604.052978515625 371.9580078125 C 602.5479736328125 372.1940002441406 601.666015625 372.9469909667969 601.666015625 374.1080017089844 C 601.666015625 375.5476989746094 602.771484375 376.2154846191406 604.09814453125 376.2154846191406 C 604.11865234375 376.2154846191406 604.1393432617188 376.2153015136719 604.1599731445312 376.2149963378906 C 604.5250244140625 376.2149963378906 604.9559936523438 376.1929931640625 605.4500122070312 376.1499938964844 C 604.8920288085938 379.5050048828125 604.5469970703125 382.9440002441406 604.739990234375 385.5889892578125 C 605.06298828125 390.0820007324219 607.7509765625 391.8890075683594 611.3839721679688 391.8890075683594 M 611.3839721679688 393.8890075683594 C 608.9791870117188 393.8890075683594 607.0025634765625 393.2311401367188 605.5090942382812 391.9337158203125 C 603.868408203125 390.5083923339844 602.9384765625 388.4219970703125 602.7451171875 385.7323913574219 C 602.596435546875 383.6944885253906 602.7255249023438 381.14501953125 603.1288452148438 378.1329345703125 C 602.3775024414062 378.0005187988281 601.7049560546875 377.71044921875 601.1500854492188 377.2751770019531 C 600.1930541992188 376.5243835449219 599.666015625 375.3995971679688 599.666015625 374.1080017089844 C 599.666015625 372.4225158691406 600.737060546875 370.4535217285156 603.7431640625 369.9821472167969 C 603.996337890625 369.9424438476562 604.3328857421875 369.9021606445312 604.6856079101562 369.8648071289062 C 604.9217529296875 368.8677062988281 605.1419677734375 368.0093383789062 605.3524169921875 367.2649841308594 L 605.3533325195312 367.2616882324219 L 605.354248046875 367.2584228515625 C 605.6552734375 366.207275390625 606.127197265625 365.3591918945312 606.7570190429688 364.7377624511719 C 607.5577392578125 363.9476318359375 608.5999755859375 363.5299987792969 609.77099609375 363.5299987792969 C 611.0516357421875 363.5299987792969 612.1651611328125 364.0399169921875 612.906494140625 364.9658203125 C 613.9295654296875 366.2436218261719 613.90673828125 367.885009765625 613.6702880859375 369.1220397949219 C 614.5089721679688 369.0730285644531 615.3241577148438 369.0339965820312 615.7919921875 369.0339965820312 C 617.0123291015625 369.0339965820312 618.0728149414062 369.3825378417969 618.8587646484375 370.0419006347656 C 619.70947265625 370.7555847167969 620.177978515625 371.7720031738281 620.177978515625 372.9039916992188 C 620.177978515625 374.4249572753906 619.313232421875 376.2494812011719 616.88623046875 376.8088684082031 L 616.883056640625 376.8096008300781 L 616.8798828125 376.8103332519531 C 616.1246337890625 376.9818115234375 614.6248779296875 377.1961364746094 612.0978393554688 377.4916076660156 C 611.631103515625 380.7127990722656 611.4681396484375 383.1786499023438 611.6133422851562 384.8342590332031 C 611.6538696289062 385.3003234863281 611.7147216796875 385.5708923339844 611.759765625 385.7176818847656 C 611.770263671875 385.7178649902344 611.7813720703125 385.7179870605469 611.7930297851562 385.7179870605469 C 612.1268920898438 385.7173461914062 613.2008056640625 385.3914794921875 613.8424682617188 385.1968078613281 C 614.0772705078125 385.1255493164062 614.3200073242188 385.0518798828125 614.561767578125 384.98095703125 C 614.9624633789062 384.8636779785156 615.356689453125 384.8044128417969 615.7349853515625 384.8044128417969 C 617.6239624023438 384.8044128417969 618.9949951171875 386.246337890625 618.9949951171875 388.2330017089844 C 618.9949951171875 389.30029296875 618.6480712890625 390.2931213378906 617.99169921875 391.1041870117188 L 617.97705078125 391.1222839355469 L 617.9619750976562 391.1400451660156 C 616.4794921875 392.8870544433594 614.0819091796875 393.8890075683594 611.3839721679688 393.8890075683594 Z" stroke="none" fill="#fff"/>
          </g>
          <g id="Path_5" data-name="Path 5" fill="#b50714" stroke-miterlimit="10">
            <path d="M 623.2730102539062 392.5870056152344 C 622.2403564453125 392.5870056152344 621.3672485351562 392.2559814453125 620.7481079101562 391.6297607421875 C 620.1068725585938 390.9811706542969 619.7882690429688 390.0807800292969 619.8010864257812 388.95361328125 C 619.8207397460938 386.9627075195312 620.089111328125 384.2074890136719 620.3732299804688 381.29052734375 L 620.4496459960938 380.5045776367188 C 620.5464477539062 379.5161437988281 620.6478881835938 378.5344543457031 620.7459716796875 377.5850830078125 C 620.9298095703125 375.80615234375 621.1034545898438 374.1258850097656 621.2008056640625 372.8291625976562 C 621.2924194335938 371.6416015625 621.6277465820312 370.7687072753906 622.2261352539062 370.1585083007812 C 622.7970581054688 369.5762329101562 623.56884765625 369.281005859375 624.52001953125 369.281005859375 C 625.5116577148438 369.281005859375 626.3590698242188 369.6097412109375 626.970703125 370.2316589355469 C 627.589599609375 370.8610229492188 627.921630859375 371.7533874511719 627.9059448242188 372.744873046875 C 627.8892822265625 374.195556640625 627.647216796875 376.3730163574219 627.3909301757812 378.67822265625 C 627.31005859375 379.4054260253906 627.2265014648438 380.1574096679688 627.1484985351562 380.8994750976562 C 627.0723266601562 381.6250305175781 626.9889526367188 382.3663940429688 626.9083862304688 383.0833435058594 C 626.6918334960938 385.0090942382812 626.487060546875 386.8304748535156 626.4055786132812 388.4032287597656 C 626.61376953125 389.6054077148438 626.37890625 390.6899719238281 625.7389526367188 391.4688720703125 C 625.1465454101562 392.1899108886719 624.2708129882812 392.5870056152344 623.2730102539062 392.5870056152344 Z M 625.0789794921875 368.2070007324219 C 624.0897827148438 368.2070007324219 623.0848388671875 367.8580322265625 622.3218994140625 367.2495727539062 C 621.4849853515625 366.5821838378906 621.0050048828125 365.6576538085938 621.0050048828125 364.7130126953125 C 621.0050048828125 362.4279479980469 622.8303833007812 360.8320007324219 625.4439697265625 360.8320007324219 C 627.824951171875 360.8320007324219 629.3040161132812 362.2777404785156 629.3040161132812 364.6050109863281 C 629.3040161132812 365.677734375 628.8095092773438 366.6388244628906 627.9115600585938 367.311279296875 C 627.1403198242188 367.888916015625 626.1343383789062 368.2070007324219 625.0789794921875 368.2070007324219 Z" stroke="none"/>
            <path d="M 623.2730102539062 391.5870056152344 C 624.7139892578125 391.5870056152344 625.7880249023438 390.427001953125 625.4010009765625 388.4700012207031 C 625.5089721679688 386.2340087890625 625.8740234375 383.4609985351562 626.1539916992188 380.7950134277344 C 626.4769897460938 377.7200012207031 626.885009765625 374.5809936523438 626.906005859375 372.7319946289062 C 626.927978515625 371.4209899902344 626.1539916992188 370.281005859375 624.52001953125 370.281005859375 C 623.2520141601562 370.281005859375 622.3489990234375 370.9469909667969 622.197998046875 372.9039916992188 C 622.0479736328125 374.9030151367188 621.7249755859375 377.7409973144531 621.4450073242188 380.6010131835938 C 621.14501953125 383.6969909667969 620.822021484375 386.8359985351562 620.801025390625 388.9649963378906 C 620.7789916992188 390.8989868164062 621.9619750976562 391.5870056152344 623.2730102539062 391.5870056152344 M 625.0789794921875 367.2070007324219 C 626.7340087890625 367.2070007324219 628.3040161132812 366.2179870605469 628.3040161132812 364.6050109863281 C 628.3040161132812 362.864013671875 627.2930297851562 361.8320007324219 625.4439697265625 361.8320007324219 C 623.552978515625 361.8320007324219 622.0050048828125 362.864013671875 622.0050048828125 364.7130126953125 C 622.0050048828125 366.0669860839844 623.4879760742188 367.2070007324219 625.0789794921875 367.2070007324219 M 623.2730102539062 393.5870056152344 C 621.9671630859375 393.5870056152344 620.84814453125 393.1533203125 620.0369873046875 392.3328247070312 C 619.4622192382812 391.75146484375 618.78125 390.6913146972656 618.8011474609375 388.9421997070312 C 618.8212280273438 386.9091796875 619.0916137695312 384.1328735351562 619.3779296875 381.1935729980469 L 619.454345703125 380.4081420898438 C 619.5514526367188 379.416015625 619.6530151367188 378.4329833984375 619.7512817382812 377.4822998046875 C 619.9343872070312 375.7105407714844 620.1073608398438 374.0370483398438 620.20361328125 372.7543334960938 C 620.312744140625 371.3401794433594 620.7528686523438 370.232666015625 621.5120849609375 369.4583740234375 C 621.7819213867188 369.1832275390625 622.1627197265625 368.8809814453125 622.6758422851562 368.6516418457031 C 621.0997314453125 367.8790588378906 620.0050048828125 366.3850708007812 620.0050048828125 364.7130126953125 C 620.0050048828125 363.2208251953125 620.6356201171875 361.9042053222656 621.78076171875 361.0056762695312 C 622.745361328125 360.2488098144531 624.0462646484375 359.8320007324219 625.4439697265625 359.8320007324219 C 627.258544921875 359.8320007324219 628.3626708984375 360.5429382324219 628.9694213867188 361.1393127441406 C 629.5782470703125 361.73779296875 630.3040161132812 362.8248596191406 630.3040161132812 364.6050109863281 C 630.3040161132812 366.0004272460938 629.667236328125 367.2457885742188 628.510986328125 368.1117248535156 C 628.0407104492188 368.4639282226562 627.5017700195312 368.7372436523438 626.9221801757812 368.9227600097656 C 627.1981201171875 369.0928344726562 627.4528198242188 369.2957763671875 627.6836547851562 369.530517578125 C 628.4917602539062 370.3522338867188 628.9256591796875 371.4989318847656 628.9058227539062 372.7600708007812 C 628.8882446289062 374.2603759765625 628.6436767578125 376.4601135253906 628.3848266601562 378.7887268066406 C 628.3041381835938 379.5144348144531 628.220703125 380.264892578125 628.14306640625 381.0039367675781 C 628.0664672851562 381.7331237792969 627.98291015625 382.476318359375 627.902099609375 383.195068359375 C 627.6921997070312 385.0617065429688 627.4934692382812 386.8294677734375 627.409912109375 388.3485717773438 C 627.6332397460938 389.7967529296875 627.3182373046875 391.1219177246094 626.5115966796875 392.1036987304688 C 625.7371215820312 393.0463562011719 624.5567016601562 393.5870056152344 623.2730102539062 393.5870056152344 Z" stroke="none" fill="#fff"/>
          </g>
          <g id="Path_6" data-name="Path 6" fill="#b50714" stroke-miterlimit="10">
            <path d="M 637.3770141601562 392.2650146484375 C 635.9166870117188 392.2650146484375 634.6500854492188 391.8954467773438 633.6123657226562 391.1665649414062 C 632.5289916992188 390.4056091308594 631.7266235351562 389.2739868164062 631.2276611328125 387.8031921386719 C 630.80126953125 386.5671081542969 630.593994140625 384.9285278320312 630.593994140625 382.7940063476562 C 630.593994140625 381.0428161621094 630.7393188476562 378.9503479003906 631.0513916015625 376.2088928222656 C 631.7274780273438 370.4556884765625 633.0025634765625 365.2424621582031 633.7025146484375 362.6466674804688 C 634.18359375 360.8897094726562 635.4525756835938 359.8429870605469 637.0980224609375 359.8429870605469 C 637.8223266601562 359.8429870605469 638.8392944335938 360.0317993164062 639.5711669921875 360.9313354492188 C 640.2418212890625 361.7556457519531 640.4591064453125 362.9414672851562 640.18310546875 364.2703857421875 C 640.0422973632812 364.9388427734375 639.8993530273438 365.5924987792969 639.748046875 366.2845458984375 C 639.0889282226562 369.2987670898438 638.407470703125 372.4155883789062 637.9407958984375 376.584228515625 C 637.4307861328125 381.0888061523438 637.3178100585938 384.0868835449219 637.6048583984375 385.4964599609375 C 637.6949462890625 385.9316711425781 637.8568115234375 386.0172729492188 638.642333984375 386.2591857910156 C 638.7908325195312 386.304931640625 638.9443969726562 386.3522033691406 639.1039428710938 386.4079895019531 C 640.6337280273438 386.9477233886719 641.4080200195312 387.8366394042969 641.4080200195312 389.0509948730469 C 641.4080200195312 389.9591979980469 641.0108032226562 390.7823791503906 640.28955078125 391.3688659667969 C 639.5685424804688 391.9551391601562 638.5614013671875 392.2650146484375 637.3770141601562 392.2650146484375 Z" stroke="none"/>
            <path d="M 637.3770141601562 391.2650146484375 C 639.4199829101562 391.2650146484375 640.4080200195312 390.2109985351562 640.4080200195312 389.0509948730469 C 640.4080200195312 388.2760009765625 639.8709716796875 387.739013671875 638.7739868164062 387.3519897460938 C 637.8499755859375 387.0289916992188 636.8829956054688 386.9429931640625 636.625 385.6960144042969 C 636.322998046875 384.2130126953125 636.4089965820312 381.2250061035156 636.947021484375 376.4729919433594 C 637.5269775390625 371.2919921875 638.4520263671875 367.6369934082031 639.2039794921875 364.0669860839844 C 639.5700073242188 362.3049926757812 638.8820190429688 360.8429870605469 637.0980224609375 360.8429870605469 C 635.9149780273438 360.8429870605469 635.0330200195312 361.5740051269531 634.6680297851562 362.9070129394531 C 633.7000122070312 366.4970092773438 632.6259765625 371.3779907226562 632.0449829101562 376.3219909667969 C 631.7659912109375 378.7730102539062 631.593994140625 380.9450073242188 631.593994140625 382.7940063476562 C 631.593994140625 384.7070007324219 631.7659912109375 386.2990112304688 632.1740112304688 387.4800109863281 C 633.0560302734375 390.0820007324219 634.926025390625 391.2650146484375 637.3770141601562 391.2650146484375 M 637.3770141601562 393.2650146484375 C 635.7069091796875 393.2650146484375 634.2469482421875 392.8343200683594 633.03759765625 391.9848937988281 C 631.7778930664062 391.1000671386719 630.850830078125 389.8027648925781 630.2821044921875 388.1286926269531 C 629.819091796875 386.7860412597656 629.593994140625 385.0409851074219 629.593994140625 382.7940063476562 C 629.593994140625 381.0041198730469 629.7413940429688 378.8757019042969 630.0578002929688 376.0957946777344 L 630.0582275390625 376.0921630859375 L 630.0586547851562 376.0885620117188 C 630.7417602539062 370.2756042480469 632.0299072265625 365.0085754394531 632.7369995117188 362.3863220214844 L 632.7379760742188 362.3825988769531 L 632.739013671875 362.3788452148438 C 633.336181640625 360.1978454589844 635.0064697265625 358.8429870605469 637.0980224609375 358.8429870605469 C 638.4285278320312 358.8429870605469 639.582275390625 359.3605041503906 640.3468627929688 360.3002014160156 C 641.2110595703125 361.3623962402344 641.5006103515625 362.8446044921875 641.1621704101562 364.4737854003906 L 641.16162109375 364.4764709472656 L 641.1610107421875 364.4791870117188 C 641.02001953125 365.1487121582031 640.876708984375 365.80419921875 640.7249755859375 366.4981384277344 C 640.0713500976562 369.4874267578125 639.3954467773438 372.5784606933594 638.9346313476562 376.6954956054688 C 638.3387451171875 381.9585571289062 638.3959350585938 384.2159118652344 638.5633544921875 385.1828002929688 C 638.6730346679688 385.2222900390625 638.81884765625 385.2671813964844 638.9366455078125 385.3034973144531 C 639.0866088867188 385.3496704101562 639.2566528320312 385.4020385742188 639.4339599609375 385.4640197753906 L 639.4367065429688 385.4649658203125 L 639.4393920898438 385.4659118652344 C 640.2947998046875 385.7677307128906 640.9483642578125 386.1592407226562 641.437255859375 386.6627807617188 C 642.0723266601562 387.3168334960938 642.4080200195312 388.1426696777344 642.4080200195312 389.0509948730469 C 642.4080200195312 390.2483825683594 641.8657836914062 391.3760070800781 640.92041015625 392.1447448730469 C 640.0191040039062 392.8776245117188 638.7938232421875 393.2650146484375 637.3770141601562 393.2650146484375 Z" stroke="none" fill="#fff"/>
          </g>
          <g id="Path_7" data-name="Path 7" fill="#b50714" stroke-miterlimit="10">
            <path d="M 651.0079956054688 392.8890075683594 C 648.8511352539062 392.8890075683594 647.09521484375 392.3135986328125 645.7889404296875 391.1788024902344 C 644.3552856445312 389.9333190917969 643.540283203125 388.0767517089844 643.3665771484375 385.6607055664062 C 643.253662109375 384.1134338378906 643.2647094726562 381.4288330078125 643.8935546875 377.2144165039062 C 643.8590087890625 377.2147827148438 643.824951171875 377.2149658203125 643.79150390625 377.2149963378906 C 643.7683715820312 377.2153015136719 643.7451782226562 377.2154846191406 643.72216796875 377.2154846191406 C 642.8036499023438 377.2154846191406 641.9976196289062 376.9640502929688 641.3912963867188 376.4884033203125 C 640.6810913085938 375.9312438964844 640.2899780273438 375.0858764648438 640.2899780273438 374.1080017089844 C 640.2899780273438 372.4604797363281 641.4982299804688 371.2874450683594 643.5220947265625 370.9700622558594 C 643.8518676757812 370.9183654785156 644.4158325195312 370.8549499511719 645.1207885742188 370.7896118164062 C 645.416259765625 369.5029602050781 645.6851806640625 368.4337463378906 645.938720703125 367.5369262695312 C 646.1927490234375 366.6498413085938 646.57763671875 365.9486083984375 647.0836181640625 365.449462890625 C 647.7020874023438 364.83935546875 648.4801025390625 364.5299987792969 649.39599609375 364.5299987792969 C 650.3662719726562 364.5299987792969 651.2022094726562 364.9066772460938 651.7498168945312 365.5906066894531 C 652.4318237304688 366.4423522949219 652.604736328125 367.6455383300781 652.2637939453125 369.1667175292969 C 652.18505859375 369.5140075683594 652.1090087890625 369.8600158691406 652.0359497070312 370.2030639648438 C 653.4204711914062 370.1109924316406 654.7975463867188 370.0339965820312 655.416015625 370.0339965820312 C 656.3982543945312 370.0339965820312 657.2364501953125 370.3016357421875 657.840087890625 370.8080139160156 C 658.4603881835938 371.3283996582031 658.802001953125 372.07275390625 658.802001953125 372.9039916992188 C 658.802001953125 373.4553833007812 658.6205444335938 375.2962646484375 656.2855834960938 375.8344421386719 C 655.5014038085938 376.0125122070312 653.7649536132812 376.2526245117188 650.8460693359375 376.5860900878906 C 650.2814331054688 380.2586975097656 650.0779418945312 383.0605773925781 650.2411499023438 384.921630859375 C 650.32568359375 385.8931274414062 650.5101318359375 386.3036499023438 650.6500244140625 386.4771118164062 C 650.7130737304688 386.5552978515625 650.8442993164062 386.7179870605469 651.4169921875 386.7179870605469 C 651.897216796875 386.7179870605469 652.8851928710938 386.4181823730469 653.7568969726562 386.1537170410156 C 653.989501953125 386.0830993652344 654.2300415039062 386.0101318359375 654.4674072265625 385.9404602050781 C 654.7760620117188 385.8501281738281 655.0758056640625 385.8044128417969 655.3589477539062 385.8044128417969 C 656.6896362304688 385.8044128417969 657.6190185546875 386.8030700683594 657.6190185546875 388.2330017089844 C 657.6190185546875 389.0687866210938 657.3490600585938 389.8441162109375 656.8382568359375 390.4751586914062 L 656.8309326171875 390.4841613769531 L 656.8234252929688 390.4930114746094 C 655.5313720703125 392.0157165527344 653.4116821289062 392.8890075683594 651.0079956054688 392.8890075683594 Z" stroke="none"/>
            <path d="M 651.0079956054688 391.8890075683594 C 653.1799926757812 391.8890075683594 654.9849853515625 391.114013671875 656.0609741210938 389.8460083007812 C 656.426025390625 389.3949890136719 656.6190185546875 388.8349914550781 656.6190185546875 388.2330017089844 C 656.6190185546875 387.4391479492188 656.19921875 386.8044128417969 655.3589477539062 386.8044128417969 C 655.1756591796875 386.8044128417969 654.9723510742188 386.8346252441406 654.7490234375 386.8999938964844 C 653.5020141601562 387.2659912109375 652.1900024414062 387.7179870605469 651.4169921875 387.7179870605469 C 650.02001953125 387.7179870605469 649.4169921875 386.9859924316406 649.2449951171875 385.0090026855469 C 649.030029296875 382.5580139160156 649.43798828125 379.010009765625 649.9769897460938 375.6780090332031 C 652.6640014648438 375.3770141601562 655.114013671875 375.0750122070312 656.0609741210938 374.8599853515625 C 657.4580078125 374.5379943847656 657.802001953125 373.6130065917969 657.802001953125 372.9039916992188 C 657.802001953125 371.8510131835938 656.9849853515625 371.0339965820312 655.416015625 371.0339965820312 C 654.72802734375 371.0339965820312 652.8569946289062 371.1419982910156 650.7930297851562 371.2919921875 C 650.9650268554688 370.4100036621094 651.1370239257812 369.614013671875 651.2880249023438 368.947998046875 C 651.8469848632812 366.4540100097656 650.6859741210938 365.5299987792969 649.39599609375 365.5299987792969 C 648.041015625 365.5299987792969 647.2890014648438 366.4540100097656 646.9010009765625 367.8089904785156 C 646.5789794921875 368.947998046875 646.2570190429688 370.281005859375 645.9349975585938 371.7219848632812 C 644.9019775390625 371.8080139160156 644.0850219726562 371.8940124511719 643.677001953125 371.9580078125 C 642.1719970703125 372.1940002441406 641.2899780273438 372.9469909667969 641.2899780273438 374.1080017089844 C 641.2899780273438 375.5476989746094 642.3954467773438 376.2154846191406 643.72216796875 376.2154846191406 C 643.74267578125 376.2154846191406 643.7633666992188 376.2153015136719 643.7839965820312 376.2149963378906 C 644.1489868164062 376.2149963378906 644.5800170898438 376.1929931640625 645.073974609375 376.1499938964844 C 644.5159912109375 379.5050048828125 644.1710205078125 382.9440002441406 644.364013671875 385.5889892578125 C 644.68701171875 390.0820007324219 647.375 391.8890075683594 651.0079956054688 391.8890075683594 M 651.0079956054688 393.8890075683594 C 648.6032104492188 393.8890075683594 646.6265869140625 393.2311401367188 645.1331176757812 391.9337158203125 C 643.492431640625 390.5083923339844 642.5625 388.4219970703125 642.369140625 385.7323913574219 C 642.220458984375 383.6943664550781 642.3494873046875 381.1449584960938 642.7528076171875 378.1329345703125 C 642.0015258789062 378.00048828125 641.328857421875 377.7104187011719 640.7741088867188 377.2752075195312 C 639.8170776367188 376.5243835449219 639.2899780273438 375.3995971679688 639.2899780273438 374.1080017089844 C 639.2899780273438 372.4225158691406 640.361083984375 370.4535217285156 643.3671875 369.9821472167969 C 643.620361328125 369.9424438476562 643.9569702148438 369.9021606445312 644.3096313476562 369.8647766113281 C 644.5458984375 368.8670959472656 644.76611328125 368.0088195800781 644.9764404296875 367.264892578125 L 644.9773559570312 367.2616577148438 L 644.978271484375 367.2584228515625 C 645.279296875 366.2071228027344 645.7514038085938 365.3589782714844 646.38134765625 364.737548828125 C 647.1821899414062 363.9475708007812 648.2246704101562 363.5299987792969 649.39599609375 363.5299987792969 C 650.676025390625 363.5299987792969 651.7891845703125 364.0398254394531 652.5303955078125 364.965576171875 C 653.5536499023438 366.2434692382812 653.5308227539062 367.8849182128906 653.2943115234375 369.1220397949219 C 654.1329956054688 369.0730285644531 654.9481811523438 369.0339965820312 655.416015625 369.0339965820312 C 656.6362915039062 369.0339965820312 657.69677734375 369.3825378417969 658.4827880859375 370.0419006347656 C 659.33349609375 370.7555541992188 659.802001953125 371.7720031738281 659.802001953125 372.9039916992188 C 659.802001953125 374.4249572753906 658.937255859375 376.2494812011719 656.5101318359375 376.8088989257812 L 656.5070190429688 376.8096008300781 L 656.5038452148438 376.8103332519531 C 655.7486572265625 376.9818115234375 654.2489013671875 377.1961364746094 651.7218017578125 377.4916076660156 C 651.255126953125 380.7127075195312 651.0921020507812 383.1785278320312 651.2373657226562 384.8342590332031 C 651.2778930664062 385.3003234863281 651.3387451171875 385.5708923339844 651.3837890625 385.7176818847656 C 651.394287109375 385.7178649902344 651.4053344726562 385.7179870605469 651.4169921875 385.7179870605469 C 651.7508544921875 385.7173767089844 652.8248291015625 385.3914794921875 653.466552734375 385.19677734375 C 653.7012939453125 385.1255493164062 653.9440307617188 385.0518798828125 654.185791015625 384.98095703125 C 654.58642578125 384.8636779785156 654.9806518554688 384.8044128417969 655.3589477539062 384.8044128417969 C 657.2479858398438 384.8044128417969 658.6190185546875 386.246337890625 658.6190185546875 388.2330017089844 C 658.6190185546875 389.3003540039062 658.2720336914062 390.2932434082031 657.6155395507812 391.1043090820312 L 657.6009521484375 391.1223449707031 L 657.5859375 391.1400451660156 C 656.1034545898438 392.8870544433594 653.7059326171875 393.8890075683594 651.0079956054688 393.8890075683594 Z" stroke="none" fill="#fff"/>
          </g>
          <g id="Path_8" data-name="Path 8" fill="#b50714" stroke-miterlimit="10">
            <path d="M 666.6820068359375 392.8670043945312 C 664.0592041015625 392.8670043945312 661.8729858398438 391.9275817871094 660.3597412109375 390.1502990722656 C 658.8761596679688 388.4078674316406 658.0919799804688 385.8938293457031 658.0919799804688 382.8800048828125 C 658.0919799804688 378.7150268554688 659.2974243164062 375.2524108886719 661.5780029296875 372.8665466308594 C 663.5889892578125 370.7626647949219 666.3253784179688 369.60400390625 669.2830200195312 369.60400390625 C 672.058837890625 369.60400390625 673.9666137695312 370.6203308105469 674.5170288085938 372.3923645019531 L 674.5261840820312 372.4218444824219 L 674.5335083007812 372.4518432617188 L 674.540771484375 372.4816589355469 C 674.5453491210938 372.5003662109375 674.5499267578125 372.5191650390625 674.5545654296875 372.5380249023438 C 675.6786499023438 373.2273254394531 676.5640258789062 374.1875305175781 677.1903686523438 375.3980407714844 C 677.8563232421875 376.6849975585938 678.1939697265625 378.1895751953125 678.1939697265625 379.8699951171875 C 678.1939697265625 381.3830871582031 677.9171142578125 382.9927368164062 677.3710327148438 384.6542358398438 C 676.620361328125 386.9176025390625 675.2063598632812 388.9709167480469 673.388671875 390.4384460449219 C 671.4207763671875 392.0272216796875 669.1016845703125 392.8670043945312 666.6820068359375 392.8670043945312 Z M 668.4179077148438 375.7625732421875 C 667.73681640625 375.9588623046875 667.1342163085938 376.380126953125 666.6202392578125 377.020751953125 C 665.8247680664062 378.0123901367188 665.2821655273438 379.5092468261719 665.05126953125 381.3495178222656 C 664.6524047851562 384.520751953125 665.2367553710938 385.7241821289062 665.62060546875 386.1593017578125 C 665.799560546875 386.3622131347656 666.1177368164062 386.6319885253906 666.8109741210938 386.6319885253906 C 668.39990234375 386.6319885253906 670.4097900390625 385.1292114257812 671.1768798828125 382.2569885253906 C 671.8670654296875 379.6810607910156 671.4048461914062 377.6830444335938 669.9708862304688 377.0419006347656 C 669.2930908203125 376.7391052246094 668.7589721679688 376.2938537597656 668.4179077148438 375.7625732421875 Z" stroke="none"/>
            <path d="M 666.6820068359375 391.8670043945312 C 671.281982421875 391.8670043945312 675.0449829101562 388.4909973144531 676.4210205078125 384.3420104980469 C 676.93701171875 382.7720031738281 677.1939697265625 381.2680053710938 677.1939697265625 379.8699951171875 C 677.1939697265625 376.8599853515625 675.9910278320312 374.4089965820312 673.6690063476562 373.1839904785156 C 673.64697265625 373.0329895019531 673.60400390625 372.8609924316406 673.56201171875 372.6889953613281 C 673.0880126953125 371.1629943847656 671.218017578125 370.60400390625 669.2830200195312 370.60400390625 C 664.2520141601562 370.60400390625 659.0919799804688 374.3880004882812 659.0919799804688 382.8800048828125 C 659.0919799804688 388.5559997558594 661.9730224609375 391.8670043945312 666.6820068359375 391.8670043945312 M 669.0239868164062 374.64599609375 C 669.1329956054688 375.2049865722656 669.56201171875 375.7640075683594 670.3790283203125 376.1289978027344 C 672.0139770507812 376.8599853515625 673.0880126953125 378.9880065917969 672.1430053710938 382.5150146484375 C 671.281982421875 385.739013671875 668.93798828125 387.6319885253906 666.8109741210938 387.6319885253906 C 664.531005859375 387.6319885253906 663.52099609375 385.5029907226562 664.0590209960938 381.2250061035156 C 664.5960083007812 376.9460144042969 666.6170043945312 374.8169860839844 669.0239868164062 374.64599609375 M 666.6820068359375 393.8670043945312 C 663.7570190429688 393.8670043945312 661.3074951171875 392.8059692382812 659.5983276367188 390.798583984375 C 657.9586791992188 388.8728332519531 657.0919799804688 386.1346435546875 657.0919799804688 382.8800048828125 C 657.0919799804688 378.45263671875 658.3932495117188 374.7511291503906 660.8551025390625 372.1755676269531 C 663.0565795898438 369.8724060058594 666.0496826171875 368.60400390625 669.2830200195312 368.60400390625 C 670.61376953125 368.60400390625 671.7837524414062 368.8169555664062 672.7604370117188 369.2369079589844 C 673.6807861328125 369.6326293945312 674.8673095703125 370.4127502441406 675.4058837890625 371.8990173339844 C 677.825439453125 373.5516052246094 679.1939697265625 376.4033813476562 679.1939697265625 379.8699951171875 C 679.1939697265625 381.4893188476562 678.9002685546875 383.2040100097656 678.321044921875 384.9664611816406 L 678.3201904296875 384.9690246582031 L 678.3193359375 384.9716186523438 C 677.5098876953125 387.4121704101562 675.98193359375 389.6300048828125 674.016845703125 391.2165222167969 C 671.869140625 392.9504699707031 669.3328247070312 393.8670043945312 666.6820068359375 393.8670043945312 Z M 668.1265258789062 376.9832763671875 C 667.8658447265625 377.1471557617188 667.623291015625 377.3685302734375 667.4002685546875 377.6465148925781 C 666.7205200195312 378.4938354492188 666.2513427734375 379.8173522949219 666.04345703125 381.4740295410156 C 665.6607666015625 384.5170593261719 666.248779296875 385.3597412109375 666.3705444335938 385.4977722167969 C 666.414794921875 385.5479736328125 666.4888916015625 385.6319885253906 666.8109741210938 385.6319885253906 C 667.9887084960938 385.6319885253906 669.5805053710938 384.3587036132812 670.2107543945312 381.9989624023438 C 670.756591796875 379.9616394042969 670.5020751953125 378.3748168945312 669.5626831054688 377.9548034667969 C 669.0036010742188 377.7050476074219 668.5192260742188 377.3746337890625 668.1265258789062 376.9832763671875 Z" stroke="none" fill="#fff"/>
          </g>
          <g id="Path_9" data-name="Path 9" fill="#b50714" stroke-miterlimit="10">
            <path d="M 682.5689697265625 392.5870056152344 C 680.5341186523438 392.5870056152344 679.27001953125 391.2320861816406 679.27001953125 389.0509948730469 C 679.27001953125 388.1865844726562 679.4666748046875 387.17626953125 679.8709716796875 385.9649047851562 C 680.3850708007812 382.0035705566406 680.9403076171875 377.4368591308594 681.1848754882812 373.4872131347656 C 681.2630615234375 372.2106018066406 681.5826416015625 371.2602844238281 682.161865234375 370.5826416015625 C 682.7781372070312 369.8616027832031 683.6458740234375 369.4960021972656 684.7410278320312 369.4960021972656 C 685.7594604492188 369.4960021972656 686.5675048828125 369.7996520996094 687.1427001953125 370.3985290527344 C 687.7757568359375 371.0577087402344 688.0709838867188 372.0299682617188 688.0202026367188 373.288330078125 C 688.0020141601562 373.7386474609375 687.9678955078125 374.1895141601562 687.9219970703125 374.6365356445312 C 688.2449340820312 374.18896484375 688.5863647460938 373.7413330078125 688.9489135742188 373.2893371582031 C 690.8878784179688 370.8717956542969 693.1542358398438 369.64599609375 695.6849975585938 369.64599609375 C 698.8875732421875 369.64599609375 700.8770141601562 371.8255004882812 700.8770141601562 375.3340148925781 C 700.8770141601562 376.8001708984375 700.5963134765625 378.2156372070312 700.2078857421875 380.1746826171875 C 700.1344604492188 380.5447082519531 700.0570678710938 380.9351501464844 699.976806640625 381.3499755859375 C 699.409423828125 384.326171875 699.3005981445312 385.6086730957031 699.5409545898438 386.5526428222656 C 699.5723876953125 386.583984375 699.6376342773438 386.6265258789062 699.6785888671875 386.6407775878906 L 699.6956176757812 386.6464538574219 L 699.712158203125 386.6526489257812 C 700.9443359375 387.1147155761719 701.6510009765625 388.1062316894531 701.6510009765625 389.3729858398438 C 701.6510009765625 390.2897338867188 701.27685546875 391.1128540039062 700.5975341796875 391.6907043457031 C 699.9832763671875 392.2132263183594 699.1549072265625 392.5010070800781 698.2650146484375 392.5010070800781 C 696.2481079101562 392.5010070800781 694.389892578125 391.3129272460938 693.531005859375 389.4742126464844 L 693.5296630859375 389.4714050292969 L 693.5283813476562 389.4685668945312 C 692.7940673828125 387.8707885742188 692.578125 385.7938537597656 692.8865356445312 383.2954711914062 C 693.094970703125 381.5515747070312 693.4596557617188 379.8310546875 693.7258911132812 378.5747985839844 C 693.8731689453125 377.8800048828125 694.0245971679688 377.1653747558594 694.0696411132812 376.7961120605469 C 693.6466674804688 377.0906677246094 692.937744140625 377.737548828125 692.1278076171875 378.8474731445312 C 690.3582153320312 381.2522583007812 688.4628295898438 383.9510192871094 686.420166015625 388.1820983886719 C 686.211181640625 389.6280517578125 685.7858276367188 390.69775390625 685.1218872070312 391.4489135742188 C 684.4637451171875 392.1934509277344 683.5809936523438 392.5870056152344 682.5689697265625 392.5870056152344 Z" stroke="none"/>
            <path d="M 682.5689697265625 391.5870056152344 C 683.9019775390625 391.5870056152344 685.0850219726562 390.6849975585938 685.4509887695312 387.8900146484375 C 687.4929809570312 383.6329956054688 689.406005859375 380.8590087890625 691.3200073242188 378.2579956054688 C 692.4810180664062 376.6669921875 693.72900390625 375.6130065917969 694.3519897460938 375.6130065917969 C 694.823974609375 375.6130065917969 695.0830078125 376.02099609375 695.0830078125 376.6239929199219 C 695.0830078125 377.4620056152344 694.2440185546875 380.364013671875 693.8790283203125 383.4179992675781 C 693.5339965820312 386.2130126953125 693.9429931640625 387.9760131835938 694.43701171875 389.0509948730469 C 695.1900024414062 390.6629943847656 696.760009765625 391.5010070800781 698.2650146484375 391.5010070800781 C 699.5759887695312 391.5010070800781 700.6510009765625 390.6849975585938 700.6510009765625 389.3729858398438 C 700.6510009765625 388.3840026855469 700.0490112304688 387.8469848632812 699.3610229492188 387.5889892578125 C 699.10400390625 387.5029907226562 698.6939697265625 387.2439880371094 698.5869750976562 386.8569946289062 C 698.2860107421875 385.739013671875 698.3720092773438 384.4280090332031 698.9949951171875 381.1600036621094 C 699.489990234375 378.6019897460938 699.8770141601562 376.9679870605469 699.8770141601562 375.3340148925781 C 699.8770141601562 372.5610046386719 698.5009765625 370.64599609375 695.6849975585938 370.64599609375 C 693.447998046875 370.64599609375 691.4710083007812 371.7430114746094 689.72900390625 373.9150085449219 C 688.2459716796875 375.7640075683594 686.97802734375 377.7200012207031 685.8590087890625 380.2569885253906 C 686.031005859375 379.5690002441406 686.2030029296875 378.8810119628906 686.3319702148438 378.2149963378906 C 686.676025390625 376.5169982910156 686.9559936523438 374.8599853515625 687.02099609375 373.2479858398438 C 687.1060180664062 371.1419982910156 686.073974609375 370.4960021972656 684.7410278320312 370.4960021972656 C 683.1719970703125 370.4960021972656 682.31201171875 371.4419860839844 682.1829833984375 373.5490112304688 C 681.9459838867188 377.3760070800781 681.4310302734375 381.718994140625 680.8499755859375 386.1910095214844 C 680.4630126953125 387.3299865722656 680.27001953125 388.2760009765625 680.27001953125 389.0509948730469 C 680.27001953125 390.7489929199219 681.1500244140625 391.5870056152344 682.5689697265625 391.5870056152344 M 682.5689697265625 393.5870056152344 C 680.9569702148438 393.5870056152344 679.9732055664062 392.9019470214844 679.4317016601562 392.3272399902344 C 678.9017333984375 391.7647705078125 678.27001953125 390.7397766113281 678.27001953125 389.0509948730469 C 678.27001953125 388.1006164550781 678.4735107421875 387.0163269042969 678.8915405273438 385.7415466308594 C 679.4000244140625 381.8187866210938 679.9459838867188 377.3143005371094 680.1868286132812 373.4253845214844 C 680.2786865234375 371.9246215820312 680.6761474609375 370.7817687988281 681.4016723632812 369.9329223632812 C 681.9619750976562 369.2774047851562 682.99609375 368.4960021972656 684.7410278320312 368.4960021972656 C 686.3617553710938 368.4960021972656 687.3338012695312 369.1539306640625 687.8638916015625 369.7058410644531 C 688.3971557617188 370.2610473632812 688.7482299804688 370.9634704589844 688.914306640625 371.8041687011719 C 690.886962890625 369.7075805664062 693.1602783203125 368.64599609375 695.6849975585938 368.64599609375 C 699.4464721679688 368.64599609375 701.8770141601562 371.2711791992188 701.8770141601562 375.3340148925781 C 701.8770141601562 376.8983764648438 701.5883178710938 378.3542175292969 701.1887817382812 380.3692016601562 C 701.11572265625 380.7374877929688 701.0386962890625 381.1260986328125 700.9588012695312 381.5389099121094 C 700.4784545898438 384.0594177246094 700.36962890625 385.1839294433594 700.4359741210938 385.8748474121094 C 701.8308715820312 386.5425415039062 702.6510009765625 387.8241882324219 702.6510009765625 389.3729858398438 C 702.6510009765625 391.7263488769531 700.7654418945312 393.5010070800781 698.2650146484375 393.5010070800781 C 695.8613891601562 393.5010070800781 693.6475219726562 392.0865173339844 692.6249389648438 389.8974304199219 L 692.622314453125 389.8917846679688 L 692.6197509765625 389.8861389160156 C 691.8072509765625 388.1182556152344 691.5629272460938 385.8616027832031 691.8934326171875 383.1785278320312 C 692.0167236328125 382.1473388671875 692.1915893554688 381.1315002441406 692.3693237304688 380.2120666503906 C 690.8106689453125 382.3648376464844 689.153076171875 384.8449096679688 687.3859252929688 388.4822387695312 C 686.6552124023438 393.0811767578125 683.7888793945312 393.5870056152344 682.5689697265625 393.5870056152344 Z" stroke="none" fill="#fff"/>
          </g>
          <g id="Path_10" data-name="Path 10" fill="#b50714" stroke-miterlimit="10">
            <path d="M 705.6610107421875 383.8580017089844 C 704.623779296875 383.8580017089844 703.73974609375 383.5480041503906 703.1044921875 382.9614868164062 C 702.4863891601562 382.3908081054688 702.14599609375 381.5908508300781 702.14599609375 380.7090148925781 C 702.14599609375 379.9558715820312 702.4186401367188 379.2361145019531 702.9136962890625 378.6823120117188 C 703.4417114257812 378.0915832519531 704.184814453125 377.7207641601562 705.0626831054688 377.60986328125 L 705.065185546875 377.6095581054688 L 705.0676879882812 377.6092529296875 C 706.6464233398438 377.4178771972656 709.644775390625 377.2789916992188 712.197021484375 377.2789916992188 C 713.3832397460938 377.2789916992188 714.6022338867188 377.3170471191406 715.72216796875 377.3890380859375 C 716.587646484375 377.4467468261719 717.3143920898438 377.7731018066406 717.8262939453125 378.3329772949219 C 718.2936401367188 378.8441467285156 718.551025390625 379.5274353027344 718.551025390625 380.2569885253906 C 718.551025390625 381.5132751464844 717.7516479492188 382.8916625976562 716.2237548828125 383.0968627929688 C 714.7966918945312 383.2946472167969 712.8109741210938 383.4900817871094 710.9110717773438 383.6196899414062 L 710.908203125 383.6199035644531 L 710.9053955078125 383.6200561523438 C 708.3068237304688 383.7823791503906 706.640380859375 383.8580017089844 705.6610107421875 383.8580017089844 Z" stroke="none"/>
            <path d="M 705.6610107421875 382.8580017089844 C 706.7789916992188 382.8580017089844 708.7780151367188 382.7510070800781 710.843017578125 382.6220092773438 C 712.7340087890625 382.4930114746094 714.6900024414062 382.2999877929688 716.0889892578125 382.1059875488281 C 717.0560302734375 381.9769897460938 717.551025390625 381.0740051269531 717.551025390625 380.2569885253906 C 717.551025390625 379.3330078125 716.947998046875 378.4729919433594 715.6580200195312 378.3869934082031 C 714.64697265625 378.3219909667969 713.4439697265625 378.2789916992188 712.197021484375 378.2789916992188 C 709.4879760742188 378.2789916992188 706.6069946289062 378.4299926757812 705.18798828125 378.6019897460938 C 703.833984375 378.7730102539062 703.14599609375 379.7200012207031 703.14599609375 380.7090148925781 C 703.14599609375 381.8909912109375 704.0059814453125 382.8580017089844 705.6610107421875 382.8580017089844 M 705.6610107421875 384.8580017089844 C 704.3679809570312 384.8580017089844 703.2493896484375 384.4562683105469 702.4261474609375 383.6962280273438 C 701.6006469726562 382.9340515136719 701.14599609375 381.8731689453125 701.14599609375 380.7090148925781 C 701.14599609375 379.7096862792969 701.5089721679688 378.7532348632812 702.1681518554688 378.015869140625 C 702.8591918945312 377.2427368164062 703.8168334960938 376.75927734375 704.9373779296875 376.6177368164062 L 704.9423217773438 376.6171264648438 L 704.9473266601562 376.6165161132812 C 706.5608520507812 376.4209289550781 709.6098022460938 376.2789916992188 712.197021484375 376.2789916992188 C 713.4042358398438 376.2789916992188 714.6453857421875 376.3177490234375 715.7863159179688 376.39111328125 C 716.9161987304688 376.4664306640625 717.8751831054688 376.9044799804688 718.5643310546875 377.658203125 C 719.2006225585938 378.3541564941406 719.551025390625 379.2770690917969 719.551025390625 380.2569885253906 C 719.551025390625 381.0973205566406 719.2887573242188 381.9288940429688 718.8125610351562 382.5985717773438 C 718.224853515625 383.4249267578125 717.353515625 383.9536437988281 716.3584594726562 384.0877685546875 C 714.9100341796875 384.2884216308594 712.8995971679688 384.4863586425781 710.9791259765625 384.6173706054688 L 710.9734497070312 384.6177673339844 L 710.9677124023438 384.6181335449219 C 708.347900390625 384.7817687988281 706.6616821289062 384.8580017089844 705.6610107421875 384.8580017089844 Z" stroke="none" fill="#fff"/>
          </g>
          <g id="Path_11" data-name="Path 11" fill="#b50714" stroke-miterlimit="10">
            <path d="M 723.291015625 392.5870056152344 C 722.2583618164062 392.5870056152344 721.38525390625 392.2561950683594 720.7661743164062 391.6303100585938 C 720.1248168945312 390.9819641113281 719.8057861328125 390.0815734863281 719.8180541992188 388.9541320800781 C 719.8387451171875 386.9546203613281 720.1090698242188 384.1868896484375 720.3953247070312 381.2566528320312 L 720.4686889648438 380.5042724609375 C 720.5663452148438 379.5033874511719 720.6687622070312 378.5091857910156 720.7678833007812 377.5477294921875 C 720.9497680664062 375.7832641601562 721.1215209960938 374.1166381835938 721.2188110351562 372.8286743164062 C 721.309814453125 371.6419677734375 721.6450805664062 370.7688598632812 722.243896484375 370.1583862304688 C 722.8148803710938 369.5762023925781 723.5867919921875 369.281005859375 724.5380249023438 369.281005859375 C 725.529296875 369.281005859375 726.3765258789062 369.6095275878906 726.9881591796875 370.2310485839844 C 727.6080932617188 370.8609924316406 727.9407348632812 371.7548522949219 727.9248657226562 372.7480163574219 C 727.9077758789062 374.1858520507812 727.66748046875 376.3478698730469 727.4131469726562 378.6368408203125 C 727.330810546875 379.37744140625 727.2457275390625 380.1432189941406 727.1665649414062 380.899169921875 C 727.0897216796875 381.633544921875 727.00537109375 382.3839111328125 726.9238891601562 383.1095581054688 C 726.7085571289062 385.0255737304688 726.5049438476562 386.8377075195312 726.424560546875 388.4030151367188 C 726.632568359375 389.6046447753906 726.3976440429688 390.6891784667969 725.757568359375 391.4682312011719 C 725.164794921875 392.189697265625 724.288818359375 392.5870056152344 723.291015625 392.5870056152344 Z M 725.0969848632812 368.2070007324219 C 724.1078491210938 368.2070007324219 723.102783203125 367.8580932617188 722.3395385742188 367.2497253417969 C 721.502197265625 366.582275390625 721.02197265625 365.6576843261719 721.02197265625 364.7130126953125 C 721.02197265625 362.4279479980469 722.8482055664062 360.8320007324219 725.4630126953125 360.8320007324219 C 727.8433227539062 360.8320007324219 729.322021484375 362.2777404785156 729.322021484375 364.6050109863281 C 729.322021484375 365.6777648925781 728.82763671875 366.6388549804688 727.9299926757812 367.3112182617188 C 727.1588745117188 367.8888854980469 726.1527099609375 368.2070007324219 725.0969848632812 368.2070007324219 Z" stroke="none"/>
            <path d="M 723.291015625 391.5870056152344 C 724.7310180664062 391.5870056152344 725.8070068359375 390.427001953125 725.4199829101562 388.4700012207031 C 725.5269775390625 386.2340087890625 725.8930053710938 383.4609985351562 726.1719970703125 380.7950134277344 C 726.4940185546875 377.7200012207031 726.9030151367188 374.5809936523438 726.9249877929688 372.7319946289062 C 726.9459838867188 371.4209899902344 726.1719970703125 370.281005859375 724.5380249023438 370.281005859375 C 723.27001953125 370.281005859375 722.3660278320312 370.9469909667969 722.2160034179688 372.9039916992188 C 722.0650024414062 374.9030151367188 721.7429809570312 377.7409973144531 721.4639892578125 380.6010131835938 C 721.1630249023438 383.6969909667969 720.8400268554688 386.8359985351562 720.8179931640625 388.9649963378906 C 720.7969970703125 390.8989868164062 721.97900390625 391.5870056152344 723.291015625 391.5870056152344 M 725.0969848632812 367.2070007324219 C 726.7529907226562 367.2070007324219 728.322021484375 366.2179870605469 728.322021484375 364.6050109863281 C 728.322021484375 362.864013671875 727.31201171875 361.8320007324219 725.4630126953125 361.8320007324219 C 723.5700073242188 361.8320007324219 722.02197265625 362.864013671875 722.02197265625 364.7130126953125 C 722.02197265625 366.0669860839844 723.5059814453125 367.2070007324219 725.0969848632812 367.2070007324219 M 723.291015625 393.5870056152344 C 721.9852905273438 393.5870056152344 720.8663940429688 393.153564453125 720.0552368164062 392.3335876464844 C 719.4804077148438 391.75244140625 718.7991333007812 390.6925659179688 718.818115234375 388.9432983398438 C 718.8392333984375 386.9007263183594 719.1116333007812 384.1119384765625 719.4000244140625 381.159423828125 L 719.473388671875 380.4075012207031 C 719.5712890625 379.403564453125 719.6738891601562 378.4079895019531 719.7731323242188 377.4452209472656 C 719.9542846679688 375.6877136230469 720.1254272460938 374.0276794433594 720.2216796875 372.7533569335938 C 720.3299560546875 371.3407592773438 720.7700805664062 370.2328491210938 721.5299682617188 369.4581298828125 C 721.7997436523438 369.1830749511719 722.180419921875 368.8809814453125 722.6934814453125 368.6517028808594 C 721.1170654296875 367.8791198730469 720.02197265625 366.3850708007812 720.02197265625 364.7130126953125 C 720.02197265625 363.2205810546875 720.65283203125 361.9038696289062 721.79833984375 361.0054321289062 C 722.7631225585938 360.2487182617188 724.0645751953125 359.8320007324219 725.4630126953125 359.8320007324219 C 727.2776489257812 359.8320007324219 728.3816528320312 360.5431213378906 728.98828125 361.1396789550781 C 729.5967407226562 361.7380676269531 730.322021484375 362.8250122070312 730.322021484375 364.6050109863281 C 730.322021484375 366.0004272460938 729.6854248046875 367.2457580566406 728.529541015625 368.1116027832031 C 728.0591430664062 368.4639282226562 727.5202026367188 368.7373046875 726.9403686523438 368.9228210449219 C 727.2158813476562 369.0926818847656 727.4702758789062 369.2952880859375 727.700927734375 369.5296325683594 C 728.5089721679688 370.3507385253906 728.9435424804688 371.4970397949219 728.9248046875 372.7578430175781 C 728.9069213867188 374.2492370605469 728.6640625 376.4342041015625 728.406982421875 378.747314453125 C 728.3248901367188 379.486328125 728.2399291992188 380.2505187988281 728.1611328125 381.0033264160156 C 728.0838623046875 381.7414245605469 727.9993896484375 382.4937133789062 727.9176025390625 383.2212219238281 C 727.708984375 385.0780029296875 727.5113525390625 386.836669921875 727.4288330078125 388.34814453125 C 727.652099609375 389.7959289550781 727.3370361328125 391.1210327148438 726.5302124023438 392.1030578613281 C 725.75537109375 393.0461120605469 724.5747680664062 393.5870056152344 723.291015625 393.5870056152344 Z" stroke="none" fill="#fff"/>
          </g>
          <g id="Path_12" data-name="Path 12" fill="#b50714" stroke-miterlimit="10">
            <path d="M 735.3309936523438 392.5440063476562 C 734.4293823242188 392.5440063476562 733.650146484375 392.2382202148438 733.07763671875 391.65966796875 C 732.3829956054688 390.9577941894531 732.0379638671875 389.9171142578125 732.0520629882812 388.5665588378906 C 732.0726318359375 385.599365234375 732.3496704101562 381.2398986816406 732.7698974609375 377.1778564453125 L 732.5543823242188 377.1911010742188 L 732.53759765625 377.192138671875 L 732.520751953125 377.1925964355469 C 732.4752807617188 377.1938781738281 732.429931640625 377.1944885253906 732.38525390625 377.1944885253906 C 731.4119262695312 377.1945495605469 730.5738525390625 376.8994140625 729.961669921875 376.341064453125 C 729.3408813476562 375.7748413085938 728.9990234375 374.9665222167969 728.9990234375 374.0650024414062 C 728.9990234375 372.3082275390625 730.0206909179688 371.2322998046875 732.03564453125 370.8670349121094 C 732.5831909179688 370.7686462402344 733.130126953125 370.68212890625 733.669921875 370.6084289550781 C 733.8468017578125 369.5765380859375 734.055908203125 368.5464782714844 734.2936401367188 367.5368041992188 L 734.2947387695312 367.5321350097656 L 734.2958984375 367.5274658203125 C 734.94970703125 364.8653564453125 735.9419555664062 362.9245300292969 737.329345703125 361.593994140625 C 738.7491455078125 360.2323913574219 740.5870361328125 359.5419921875 742.7919921875 359.5419921875 C 744.0421752929688 359.5419921875 745.2440795898438 359.8297729492188 746.267822265625 360.3742065429688 C 747.1839599609375 360.8614501953125 747.947265625 361.5529174804688 748.4171142578125 362.3212585449219 L 748.4191284179688 362.3245544433594 L 748.421142578125 362.3278503417969 C 749.04052734375 363.3584289550781 749.1029052734375 364.5599365234375 748.5845336914062 365.4649963378906 C 748.1284790039062 366.2765808105469 747.2817993164062 366.7804260253906 746.3731079101562 366.7804565429688 C 745.939208984375 366.7804870605469 745.5040283203125 366.6637268066406 745.1145629882812 366.4428100585938 C 745.0118408203125 366.3844909667969 744.9102783203125 366.3240356445312 744.8121337890625 366.2655944824219 C 744.2943115234375 365.957275390625 743.84716796875 365.6910095214844 743.2219848632812 365.6910095214844 C 742.5610961914062 365.6910095214844 742.1140747070312 365.9038696289062 741.7273559570312 366.4027709960938 C 741.2263793945312 367.049072265625 740.8385009765625 368.1845092773438 740.5745849609375 369.7774658203125 L 740.5739135742188 369.7813415527344 L 740.5732421875 369.7851867675781 C 740.5570678710938 369.8782653808594 740.5404663085938 369.9746398925781 740.5237426757812 370.0733032226562 C 740.949462890625 370.0617980957031 741.3696899414062 370.0559997558594 741.781005859375 370.0559997558594 C 742.7216796875 370.0559997558594 743.6448974609375 370.0943908691406 744.4508056640625 370.1670532226562 C 746.0765991210938 370.3184204101562 747.1669921875 371.3924865722656 747.1669921875 372.8399963378906 C 747.1669921875 374.2644958496094 746.3191528320312 375.3182373046875 744.8988647460938 375.6595458984375 C 743.8901977539062 375.9063415527344 741.7755126953125 376.1978454589844 739.6808471679688 376.4635620117188 C 739.3184204101562 379.9385986328125 739.1185302734375 383.1464538574219 738.9557495117188 385.7597045898438 C 738.8882446289062 386.8429565429688 738.824462890625 387.8661193847656 738.7582397460938 388.7589721679688 C 738.6663208007812 389.9766540527344 738.3464965820312 390.8809204101562 737.7803955078125 391.5248107910156 C 737.1857299804688 392.2011108398438 736.3616943359375 392.5440063476562 735.3309936523438 392.5440063476562 Z" stroke="none"/>
            <path d="M 735.3309936523438 391.5440063476562 C 736.77099609375 391.5440063476562 737.6099853515625 390.6849975585938 737.760986328125 388.6849975585938 C 737.9970092773438 385.5029907226562 738.1900024414062 380.8380126953125 738.77099609375 375.5700073242188 C 741.1790161132812 375.2699890136719 743.6079711914062 374.9460144042969 744.6619873046875 374.68798828125 C 745.7369995117188 374.4309997558594 746.1669921875 373.6990051269531 746.1669921875 372.8399963378906 C 746.1669921875 371.9580078125 745.52099609375 371.27099609375 744.3610229492188 371.1629943847656 C 743.6510009765625 371.0989990234375 742.77001953125 371.0559997558594 741.781005859375 371.0559997558594 C 741.0070190429688 371.0559997558594 740.1900024414062 371.0769958496094 739.3519897460938 371.1199951171875 C 739.416015625 370.625 739.5020141601562 370.1090087890625 739.5880126953125 369.614013671875 C 740.1900024414062 365.9809875488281 741.3720092773438 364.6910095214844 743.2219848632812 364.6910095214844 C 744.2750244140625 364.6910095214844 744.9630126953125 365.2070007324219 745.6079711914062 365.572998046875 C 745.8585205078125 365.7151184082031 746.1198120117188 365.7804870605469 746.373046875 365.7804565429688 C 746.9234619140625 365.7804260253906 747.4356079101562 365.4716491699219 747.7150268554688 364.9710083007812 C 748.0369873046875 364.4119873046875 748.0159912109375 363.5950012207031 747.5640258789062 362.8429870605469 C 746.85400390625 361.6820068359375 745.156005859375 360.5419921875 742.7919921875 360.5419921875 C 738.9000244140625 360.5419921875 736.4710083007812 362.864013671875 735.2670288085938 367.7659912109375 C 735.0089721679688 368.8619995117188 734.7509765625 370.1310119628906 734.5360107421875 371.5069885253906 C 733.6110229492188 371.614013671875 732.8150024414062 371.7430114746094 732.2139892578125 371.8510131835938 C 730.5590209960938 372.1510009765625 729.9990234375 372.9039916992188 729.9990234375 374.0650024414062 C 729.9990234375 375.3248596191406 730.9010620117188 376.194580078125 732.3851928710938 376.1944885253906 C 732.4207153320312 376.1944885253906 732.456787109375 376.1940002441406 732.4929809570312 376.1929931640625 L 733.8909912109375 376.1069946289062 C 733.375 380.7090148925781 733.072998046875 385.5459899902344 733.052001953125 388.5769958496094 C 733.030029296875 390.6849975585938 734.02001953125 391.5440063476562 735.3309936523438 391.5440063476562 M 735.3309936523438 393.5440063476562 C 734.1563720703125 393.5440063476562 733.1314086914062 393.1356506347656 732.3668212890625 392.3630981445312 C 731.4781494140625 391.4650573730469 731.0357666015625 390.1853637695312 731.0520629882812 388.5596313476562 C 731.0712280273438 385.8212890625 731.3054809570312 381.9197998046875 731.6680908203125 378.1485290527344 C 730.740478515625 378.0264587402344 729.92724609375 377.6631469726562 729.2877807617188 377.0798645019531 C 728.4567260742188 376.3218688964844 727.9990234375 375.2511596679688 727.9990234375 374.0650024414062 C 727.9990234375 372.937744140625 728.3442993164062 371.9970092773438 729.0252075195312 371.2689819335938 C 729.6864013671875 370.5619812011719 730.61279296875 370.1086730957031 731.8572387695312 369.8830871582031 C 732.1763305664062 369.8257446289062 732.4950561523438 369.7723693847656 732.812255859375 369.7230834960938 C 732.9630126953125 368.9114074707031 733.1329345703125 368.103271484375 733.3202514648438 367.3076171875 L 733.3224487304688 367.2982788085938 L 733.3247680664062 367.2889404296875 C 734.0252075195312 364.43701171875 735.1087646484375 362.3380737304688 736.63720703125 360.8722839355469 C 738.24951171875 359.3260192871094 740.3203125 358.5419921875 742.7919921875 358.5419921875 C 744.205322265625 358.5419921875 745.5696411132812 358.8702697753906 746.7373657226562 359.4913330078125 C 747.824462890625 360.0694885253906 748.7003173828125 360.8676452636719 749.270263671875 361.7995300292969 L 749.2742919921875 361.8060913085938 L 749.2782592773438 361.8127136230469 C 750.0829467773438 363.1516723632812 750.1504516601562 364.7378540039062 749.4555053710938 365.9563598632812 C 748.8223876953125 367.081787109375 747.6424560546875 367.7803955078125 746.3731689453125 367.7804565429688 C 745.7666015625 367.7804870605469 745.1607666015625 367.6187133789062 744.6211547851562 367.3126220703125 C 744.5092163085938 367.2490539550781 744.403076171875 367.1858825683594 744.3004760742188 367.1247863769531 C 743.82177734375 366.8397521972656 743.556396484375 366.6910095214844 743.2219848632812 366.6910095214844 C 742.8345336914062 366.6910095214844 742.6915893554688 366.7910766601562 742.5177001953125 367.0154113769531 C 742.2943115234375 367.3036193847656 741.9946899414062 367.8856201171875 741.73193359375 369.0560302734375 C 741.748291015625 369.0559997558594 741.7646484375 369.0559997558594 741.781005859375 369.0559997558594 C 742.7511596679688 369.0559997558594 743.7053833007812 369.0957946777344 744.5405883789062 369.1710815429688 L 744.5435180664062 369.1713256835938 L 744.5464477539062 369.1716003417969 C 746.6781616210938 369.3700866699219 748.1669921875 370.8786010742188 748.1669921875 372.8399963378906 C 748.1669921875 374.7290344238281 747.0049438476562 376.1812133789062 745.134033203125 376.6315002441406 C 744.3391723632812 376.8257446289062 742.9794311523438 377.0434875488281 740.595703125 377.3540649414062 C 740.2849731445312 380.5066223144531 740.1036376953125 383.4171142578125 739.9537963867188 385.8218994140625 C 739.8861083984375 386.9081726074219 739.8221435546875 387.9342041015625 739.7554931640625 388.8329467773438 C 739.6465454101562 390.2764892578125 739.2461547851562 391.3721313476562 738.5313720703125 392.1851196289062 C 737.986328125 392.8050231933594 736.9886474609375 393.5440063476562 735.3309936523438 393.5440063476562 Z" stroke="none" fill="#fff"/>
          </g>
          <g id="Path_13" data-name="Path 13" fill="#b50714" stroke-miterlimit="10">
            <path d="M 748.9180297851562 401.0369873046875 C 747.272216796875 401.0369873046875 745.9829711914062 399.841796875 745.9829711914062 398.3160095214844 C 745.9829711914062 397.1206359863281 746.827392578125 396.2125854492188 747.6534423828125 395.4819641113281 C 749.5989990234375 393.7598571777344 751.0046997070312 392.226318359375 752.3847045898438 390.3067016601562 C 751.0369873046875 388.0923461914062 749.9064331054688 385.656005859375 749.0199584960938 383.0544128417969 C 748.036376953125 380.1678161621094 747.3783569335938 377.148681640625 747.064208984375 374.0808715820312 C 746.9151000976562 372.5819702148438 747.19970703125 371.4257202148438 747.9098510742188 370.6414184570312 C 748.4739990234375 370.0183410644531 749.2686767578125 369.6889953613281 750.2080078125 369.6889953613281 C 752.1337280273438 369.6889953613281 753.3965454101562 370.8999328613281 753.672607421875 373.0113525390625 C 754.2548217773438 377.3722534179688 755.1636352539062 380.9334411621094 756.4990844726562 384.0437927246094 C 758.4861450195312 380.173828125 760.0951538085938 376.1187438964844 761.08984375 372.4493713378906 C 761.35888671875 371.4619445800781 761.80322265625 370.7064514160156 762.4107666015625 370.2026062011719 C 762.9930419921875 369.7198181152344 763.7050170898438 369.4750061035156 764.5269775390625 369.4750061035156 C 765.5433349609375 369.4750061035156 766.471435546875 369.8969116210938 767.0733032226562 370.6325073242188 C 767.7562866210938 371.4672546386719 767.9863891601562 372.6500244140625 767.7212524414062 373.9629821777344 C 766.8643798828125 378.2945556640625 763.7129516601562 385.4758605957031 760.5474853515625 390.3079833984375 C 758.962158203125 392.7194519042969 757.269287109375 394.9053039550781 755.6510009765625 396.6305236816406 C 753.8643188476562 398.5352172851562 752.18701171875 399.8753356933594 750.6655883789062 400.6136474609375 L 750.6632690429688 400.6147766113281 L 750.6609497070312 400.6158752441406 C 750.0857543945312 400.891357421875 749.4830932617188 401.0369873046875 748.9180297851562 401.0369873046875 Z" stroke="none"/>
            <path d="M 748.9180297851562 400.0369873046875 C 749.3259887695312 400.0369873046875 749.7780151367188 399.9299926757812 750.22900390625 399.7139892578125 C 753.1530151367188 398.2950134277344 756.6580200195312 394.4039916992188 759.7109985351562 389.760009765625 C 762.9359741210938 384.8370056152344 765.9459838867188 377.7839965820312 766.7410278320312 373.7650146484375 C 767.1710205078125 371.635986328125 765.989013671875 370.4750061035156 764.5269775390625 370.4750061035156 C 763.4310302734375 370.4750061035156 762.5059814453125 371.0559997558594 762.0549926757812 372.7109985351562 C 760.8720092773438 377.0750122070312 758.8510131835938 381.9119873046875 756.4429931640625 386.2770080566406 C 754.4650268554688 382.4070129394531 753.3469848632812 378.1289978027344 752.6810302734375 373.1409912109375 C 752.4869995117188 371.6570129394531 751.7340087890625 370.6889953613281 750.2080078125 370.6889953613281 C 748.7030029296875 370.6889953613281 747.843017578125 371.8080139160156 748.0590209960938 373.97900390625 C 748.6820068359375 380.06298828125 750.6810302734375 385.7820129394531 753.583984375 390.3410034179688 C 751.948974609375 392.7049865722656 750.3800048828125 394.4039916992188 748.3159790039062 396.2309875488281 C 747.56298828125 396.8970031738281 746.9829711914062 397.5639953613281 746.9829711914062 398.3160095214844 C 746.9829711914062 399.2409973144531 747.7780151367188 400.0369873046875 748.9180297851562 400.0369873046875 M 748.9180297851562 402.0369873046875 C 747.8739013671875 402.0369873046875 746.8970336914062 401.6665344238281 746.1673583984375 400.9938049316406 C 745.4146728515625 400.2998962402344 744.9829711914062 399.3238830566406 744.9829711914062 398.3160095214844 C 744.9829711914062 396.7143249511719 746.0560913085938 395.5597839355469 746.990966796875 394.73291015625 C 748.6950073242188 393.2245483398438 749.9711303710938 391.8665161132812 751.1864013671875 390.2487182617188 C 749.9518432617188 388.12890625 748.9069213867188 385.8231811523438 748.0734252929688 383.376953125 C 747.0654907226562 380.4189453125 746.3912353515625 377.3255615234375 746.0693969726562 374.1827392578125 L 746.0691528320312 374.1798706054688 L 746.06884765625 374.177001953125 C 745.9464721679688 372.9471130371094 746.0379638671875 371.2189025878906 747.1685180664062 369.9702453613281 C 747.927490234375 369.1320495605469 748.978515625 368.6889953613281 750.2080078125 368.6889953613281 C 751.833984375 368.6889953613281 752.8406982421875 369.3943786621094 753.3988647460938 369.9861450195312 C 754.0810546875 370.7093811035156 754.506591796875 371.6821899414062 754.66357421875 372.8774108886719 C 755.1066284179688 376.1956481933594 755.7401123046875 379.0342102050781 756.6099243164062 381.5546875 C 758.1055297851562 378.3816528320312 759.3203125 375.1549987792969 760.1246948242188 372.187744140625 C 760.7678833007812 369.8273010253906 762.3721923828125 368.4750061035156 764.5269775390625 368.4750061035156 C 765.844482421875 368.4750061035156 767.0546264648438 369.0305786132812 767.8472900390625 369.999267578125 C 768.72314453125 371.0697631835938 769.0266723632812 372.5465087890625 768.7020874023438 374.1577453613281 C 767.8218383789062 378.600830078125 764.6080932617188 385.9342956542969 761.3839721679688 390.85595703125 C 759.766845703125 393.3158874511719 758.0371704101562 395.54833984375 756.3803100585938 397.3146667480469 C 754.509765625 399.3088073730469 752.7339477539062 400.7214660644531 751.1021728515625 401.5133056640625 L 751.0975952148438 401.5155639648438 L 751.0929565429688 401.5177917480469 C 750.3837280273438 401.8574523925781 749.6316528320312 402.0369873046875 748.9180297851562 402.0369873046875 Z" stroke="none" fill="#fff"/>
          </g>
        </g>
      </g>
    </g>
    <g id="Group_5" data-name="Group 5">
      <g id="Path_1-2" data-name="Path 1-2">
        <g id="Path_14" data-name="Path 14" fill="#b50714" stroke-miterlimit="10">
          <path d="M 596.208984375 415.1610107421875 C 594.550048828125 415.1610107421875 593.1082763671875 413.980224609375 592.7807006835938 412.3534240722656 C 592.5958251953125 411.4375305175781 592.7787475585938 410.5040588378906 593.2957153320312 409.7253723144531 C 593.81298828125 408.9463500976562 594.6026611328125 408.4155578613281 595.5193481445312 408.2307434082031 C 595.6231079101562 408.2095947265625 606.5321655273438 406.0156555175781 622.3467407226562 403.8023986816406 C 631.3934936523438 402.5362854003906 640.1787109375 401.5278015136719 648.4581909179688 400.8049926757812 C 658.7979736328125 399.9022827148438 668.3792724609375 399.444580078125 676.93603515625 399.444580078125 C 679.19873046875 399.444580078125 681.4242553710938 399.4768371582031 683.5509033203125 399.5404357910156 C 722.1875610351562 400.6910705566406 754.8909301757812 404.6624450683594 755.2167358398438 404.7024536132812 C 756.1444091796875 404.8161926269531 756.972412109375 405.284423828125 757.548095703125 406.0208435058594 C 758.1239013671875 406.7574157714844 758.3782958984375 407.6739807128906 758.2645263671875 408.6017456054688 C 758.0498657226562 410.3551635742188 756.5608520507812 411.6775817871094 754.8009033203125 411.6776123046875 C 754.6554565429688 411.6776123046875 754.5081176757812 411.6683959960938 754.3629760742188 411.6502380371094 C 754.2860107421875 411.6407775878906 746.1410522460938 410.6493225097656 733.061279296875 409.5059509277344 C 721.2814331054688 408.4761962890625 703.0934448242188 407.1253356933594 683.34228515625 406.5375671386719 C 681.2685546875 406.475341796875 679.0974731445312 406.4438171386719 676.88916015625 406.4438171386719 C 640.7020874023438 406.4438171386719 598.6790771484375 414.7373657226562 596.9078979492188 415.0904235839844 L 596.906005859375 415.0907897949219 C 596.682861328125 415.1373901367188 596.4483642578125 415.1610107421875 596.208984375 415.1610107421875 Z" stroke="none"/>
          <path d="M 596.208984375 414.1610107421875 C 596.3729858398438 414.1610107421875 596.5399780273438 414.14599609375 596.7059936523438 414.1109924316406 C 597.1610107421875 414.0203857421875 640.0568237304688 405.4438171386719 676.88916015625 405.4438171386719 C 679.0728759765625 405.4438171386719 681.2410888671875 405.4740905761719 683.3720092773438 405.5379943847656 C 721.6129760742188 406.6759948730469 754.1630249023438 410.6180114746094 754.4869995117188 410.6579895019531 C 754.5925903320312 410.6712036132812 754.6973266601562 410.6776123046875 754.8009033203125 410.6776123046875 C 756.0470581054688 410.6776123046875 757.1168823242188 409.7467346191406 757.27197265625 408.4800109863281 C 757.4400024414062 407.1099853515625 756.4650268554688 405.8630065917969 755.094970703125 405.6950073242188 C 754.7689819335938 405.6549987792969 722.0029907226562 401.6860046386719 683.52099609375 400.5400085449219 C 681.3531494140625 400.4751586914062 679.1566162109375 400.444580078125 676.9359741210938 400.444580078125 C 639.5674438476562 400.444580078125 596.17578125 409.1175537109375 595.7169799804688 409.2109985351562 C 594.3629760742188 409.4840087890625 593.4879760742188 410.8030090332031 593.760986328125 412.156005859375 C 594 413.3429870605469 595.0430297851562 414.1610107421875 596.208984375 414.1610107421875 M 596.208984375 416.1610107421875 C 594.07568359375 416.1610107421875 592.2216186523438 414.6427001953125 591.8003540039062 412.5508117675781 C 591.5628051757812 411.37353515625 591.7979736328125 410.1734313964844 592.462646484375 409.1722412109375 C 593.127685546875 408.1705932617188 594.14306640625 407.4880981445312 595.3217163085938 407.2504577636719 C 595.423828125 407.2296447753906 606.3638305664062 405.0294799804688 622.2081298828125 402.8120422363281 C 631.27197265625 401.5435485839844 640.0745239257812 400.5331115722656 648.3712158203125 399.8087768554688 C 658.73974609375 398.9035339355469 668.350341796875 398.444580078125 676.93603515625 398.444580078125 C 679.2086791992188 398.444580078125 681.4442749023438 398.4769592285156 683.580810546875 398.5408935546875 C 722.2634887695312 399.69287109375 755.0122680664062 403.6698608398438 755.3385620117188 403.7098999023438 C 756.5311889648438 403.8561096191406 757.5957641601562 404.4581604003906 758.3359375 405.4049987792969 C 759.0762939453125 406.3520202636719 759.4034423828125 407.5305786132812 759.257080078125 408.7235107421875 C 758.9811401367188 410.9775085449219 757.0653686523438 412.6776123046875 754.8009033203125 412.6776123046875 C 754.6141357421875 412.6776123046875 754.425048828125 412.6658325195312 754.2388916015625 412.6425476074219 C 754.163818359375 412.6332702636719 746.0476684570312 411.6449890136719 732.9742431640625 410.5021362304688 C 721.2074584960938 409.4735412597656 703.0400390625 408.1241760253906 683.3125 407.537109375 C 681.2488403320312 407.4751892089844 679.087890625 407.4438171386719 676.88916015625 407.4438171386719 C 640.8260498046875 407.4438171386719 598.927001953125 415.707763671875 597.1069946289062 416.0704040527344 C 596.8176879882812 416.1305541992188 596.515625 416.1610107421875 596.208984375 416.1610107421875 Z" stroke="none" fill="#fff"/>
        </g>
      </g>
    </g>
  </g>
</svg>
